<svg width="250" height="167" viewBox="0 0 250 167" fill="none" xmlns="http://www.w3.org/2000/svg">
<path d="M73.2944 40.7536L35.8941 65.772L72.7332 120.843L110.133 95.8247L73.2944 40.7536Z" fill="#F5F5F5"/>
<path d="M90.8066 93.22L90.3833 95.8467L71.79 93.1667L72.2133 90.54L90.8066 93.22Z" fill="#E0E0E0"/>
<path d="M81.4434 83.8501L84.11 84.2334L81.1534 102.54L78.4833 102.153L81.4434 83.8501Z" fill="#E0E0E0"/>
<path d="M64.3333 60.5832C64.36 60.6199 60.6133 63.1766 55.9633 66.2833C51.3133 69.3899 47.5233 71.8833 47.4967 71.8433C47.47 71.8033 51.2167 69.2499 55.8667 66.1399C60.5167 63.0299 64.29 60.5432 64.3333 60.5832Z" fill="#E0E0E0"/>
<path d="M78.0733 57.1299C78.1 57.1699 71.8667 61.3833 64.1533 66.5433C56.44 71.7034 50.1533 75.8534 50.1333 75.8167C50.1133 75.7801 56.3333 71.56 64.0567 66.4C71.78 61.24 78.0467 57.0899 78.0733 57.1299Z" fill="#E0E0E0"/>
<path d="M80.83 61.25C80.8567 61.29 74.6234 65.5067 66.91 70.6667C59.1967 75.8267 52.9101 79.9767 52.8901 79.9367C52.8701 79.8967 59.0967 75.6834 66.8134 70.5201C74.53 65.3567 80.8033 61.21 80.83 61.25Z" fill="#E0E0E0"/>
<path d="M83.5866 65.3733C83.6133 65.4133 77.38 69.63 69.6666 74.7867C61.9533 79.9433 55.6666 84.1 55.6666 84.06C55.6666 84.02 61.87 79.8033 69.5866 74.6433C77.3033 69.4833 83.56 65.3333 83.5866 65.3733Z" fill="#E0E0E0"/>
<path d="M86.3333 69.4966C86.36 69.5366 80.1267 73.75 72.4134 78.91C64.7 84.07 58.4134 88.22 58.3967 88.18C58.38 88.14 64.61 83.9267 72.3334 78.7667C80.0567 73.6066 86.3333 69.4566 86.3333 69.4966Z" fill="#E0E0E0"/>
<path d="M198.357 77.6548L166.946 98.6663L197.884 144.916L229.295 123.904L198.357 77.6548Z" fill="#F5F5F5"/>
<path d="M213.067 121.727L212.71 123.933L197.093 121.683L197.453 119.477L213.067 121.727Z" fill="#E0E0E0"/>
<path d="M205.203 113.857L207.443 114.18L204.96 129.553L202.717 129.23L205.203 113.857Z" fill="#E0E0E0"/>
<path d="M190.82 94.3334C190.847 94.3734 187.703 96.5234 183.797 99.1334C179.89 101.743 176.703 103.83 176.677 103.8C176.65 103.77 179.797 101.613 183.7 99.0001C187.603 96.3867 190.793 94.2767 190.82 94.3334Z" fill="#E0E0E0"/>
<path d="M202.37 91.4166C202.397 91.4566 197.167 95.0033 190.703 99.3333C184.24 103.663 178.95 107.15 178.923 107.11C178.897 107.07 184.127 103.523 190.59 99.1899C197.053 94.8566 202.333 91.3766 202.37 91.4166Z" fill="#E0E0E0"/>
<path d="M204.687 94.8768C204.713 94.9168 199.483 98.4634 193.02 102.797C186.557 107.13 181.267 110.61 181.24 110.57C181.213 110.53 186.427 107 192.907 102.667C199.387 98.3334 204.667 94.8401 204.687 94.8768Z" fill="#E0E0E0"/>
<path d="M207 98.3332C207.027 98.3732 201.793 101.92 195.333 106.253C188.873 110.587 183.58 114.067 183.553 114.027C183.527 113.987 188.757 110.443 195.22 106.107C201.683 101.77 206.977 98.2999 207 98.3332Z" fill="#E0E0E0"/>
<path d="M209.334 101.803C209.36 101.843 204.13 105.387 197.667 109.72C191.203 114.053 185.913 117.533 185.887 117.497C185.86 117.46 191.09 113.91 197.553 109.577C204.017 105.243 209.29 101.763 209.334 101.803Z" fill="#E0E0E0"/>
<path d="M148.664 42.7798L114.391 24.4492L87.4001 74.9144L121.673 93.245L148.664 42.7798Z" fill="#F5F5F5"/>
<path d="M115.807 77.4567L113.633 78.2001L108.113 62.9434L110.29 62.1968L115.807 77.4567Z" fill="#E0E0E0"/>
<path d="M119.14 66.51L119.933 68.7L104.78 73.8899L103.987 71.7L119.14 66.51Z" fill="#E0E0E0"/>
<path d="M129.907 44.0001C129.88 44.0501 126.407 42.2434 122.143 39.9667C117.88 37.69 114.45 35.8 114.477 35.75C114.503 35.7 117.98 37.5067 122.243 39.7834C126.507 42.0601 129.933 43.9467 129.907 44.0001Z" fill="#E0E0E0"/>
<path d="M138.133 53.0767C138.107 53.1267 132.353 50.1001 125.283 46.3201C118.213 42.5401 112.507 39.4334 112.533 39.3834C112.56 39.3334 118.31 42.3568 125.38 46.1401C132.45 49.9234 138.16 53.0267 138.133 53.0767Z" fill="#E0E0E0"/>
<path d="M136.113 56.8534C136.087 56.9034 130.333 53.8801 123.263 50.0967C116.193 46.3134 110.487 43.21 110.514 43.16C110.54 43.11 116.29 46.1367 123.36 49.9167C130.43 53.6967 136.14 56.8034 136.113 56.8534Z" fill="#E0E0E0"/>
<path d="M134.093 60.6301C134.067 60.6801 128.313 57.6568 121.243 53.8768C114.173 50.0968 108.467 47.0001 108.493 46.9401C108.52 46.8801 114.27 49.9134 121.34 53.6934C128.41 57.4734 134.12 60.5801 134.093 60.6301Z" fill="#E0E0E0"/>
<path d="M132.073 64.4067C132.047 64.4567 126.293 61.4333 119.223 57.6533C112.153 53.8733 106.443 50.7667 106.473 50.7167C106.503 50.6667 112.25 53.69 119.32 57.47C126.39 61.25 132.1 64.3567 132.073 64.4067Z" fill="#E0E0E0"/>
<path opacity="0.2" d="M132.25 0H131.39V14.66H132.25V0Z" fill="black"/>
<path d="M111.743 32.3968H151.897C151.897 32.3968 148.19 14.6667 131.517 14.6667C116.687 14.6667 111.743 32.3968 111.743 32.3968Z" fill="#933964"/>
<path d="M132.25 0H131.39V14.66H132.25V0Z" fill="#933964"/>
<path d="M221.224 146.61C221.224 146.656 178.14 146.696 125.003 146.696C71.8668 146.696 28.7767 146.666 28.7767 146.61C28.7767 146.553 71.8534 146.523 125.003 146.523C178.154 146.523 221.224 146.56 221.224 146.61Z" fill="#263238"/>
<path d="M39.43 125.734C39.9935 125.774 40.5431 125.928 41.046 126.186C41.5488 126.443 41.9945 126.8 42.3566 127.234C43.0766 128.106 43.5864 129.133 43.8466 130.234C44.41 132.34 44.0633 134.83 43.4633 136.927C41.1833 136.11 39.7733 133.677 39.13 132.397C38.13 130.377 37.5333 126.11 39.42 125.73" fill="#933964"/>
<path d="M39.43 125.734C39.9935 125.774 40.5431 125.928 41.046 126.186C41.5488 126.443 41.9945 126.8 42.3566 127.234C43.0766 128.106 43.5864 129.133 43.8466 130.234C44.41 132.34 44.0633 134.83 43.4633 136.927C41.1833 136.11 39.7733 133.677 39.13 132.397C38.13 130.377 37.5333 126.11 39.42 125.73" fill="black" fill-opacity="0.2"/>
<path d="M46.7467 139.484C46.4043 138.953 46.2085 138.34 46.1793 137.709C46.15 137.078 46.2883 136.451 46.58 135.89C46.8809 135.335 47.2894 134.845 47.7816 134.45C48.2738 134.054 48.8398 133.761 49.4467 133.587C50.0034 133.413 50.65 133.343 51.1334 133.667C51.3513 133.831 51.521 134.052 51.6247 134.304C51.7285 134.557 51.7626 134.833 51.7234 135.103C51.6359 135.645 51.4058 136.154 51.0567 136.577C49.9467 138.08 48.6 139.33 46.7234 139.484" fill="#933964"/>
<path d="M46.7467 139.484C46.4043 138.953 46.2085 138.34 46.1793 137.709C46.15 137.078 46.2883 136.451 46.58 135.89C46.8809 135.335 47.2894 134.845 47.7816 134.45C48.2738 134.054 48.8398 133.761 49.4467 133.587C50.0034 133.413 50.65 133.343 51.1334 133.667C51.3513 133.831 51.521 134.052 51.6247 134.304C51.7285 134.557 51.7626 134.833 51.7234 135.103C51.6359 135.645 51.4058 136.154 51.0567 136.577C49.9467 138.08 48.6 139.33 46.7234 139.484" fill="black" fill-opacity="0.2"/>
<path d="M47 146.527C46.9505 146.385 46.9159 146.239 46.8966 146.09C46.8366 145.777 46.7566 145.373 46.66 144.89C46.3607 143.567 46.2774 142.204 46.4133 140.853C46.5705 139.497 47.0872 138.207 47.91 137.117C48.1614 136.791 48.4513 136.497 48.7733 136.24C48.8608 136.171 48.9521 136.106 49.0467 136.047C49.0767 136.022 49.1105 136.002 49.1467 135.987C48.725 136.347 48.3398 136.748 47.9967 137.183C47.2172 138.275 46.7264 139.545 46.57 140.877C46.3566 142.43 46.62 143.853 46.7733 144.877C46.8533 145.387 46.92 145.8 46.9566 146.087C46.9829 146.232 46.9974 146.379 47 146.527Z" fill="#263238"/>
<path d="M40.1633 128.943C40.2014 128.996 40.2327 129.053 40.2567 129.113C40.3167 129.247 40.3967 129.413 40.49 129.623C40.6933 130.067 40.9767 130.71 41.32 131.507C42.0067 133.103 42.9267 135.323 43.8867 137.797C44.8467 140.27 45.6634 142.527 46.22 144.17C46.5067 144.99 46.73 145.657 46.8867 146.12C46.9567 146.34 47.0101 146.517 47.0534 146.653C47.0772 146.714 47.0939 146.778 47.1034 146.843C47.0696 146.787 47.0427 146.726 47.0234 146.663C46.9734 146.53 46.91 146.357 46.8267 146.14L46.1234 144.207C45.5267 142.577 44.6934 140.323 43.7367 137.853C42.78 135.383 41.8733 133.157 41.2133 131.55C40.88 130.76 40.6233 130.117 40.4333 129.647C40.3467 129.433 40.2767 129.263 40.2233 129.127C40.1983 129.067 40.1782 129.006 40.1633 128.943Z" fill="#263238"/>
<path d="M44.29 141.867C43.6041 140.725 42.6563 139.763 41.5248 139.059C40.3934 138.356 39.1109 137.933 37.7833 137.823C37.1167 137.777 36.2966 137.89 35.9966 138.49C35.6966 139.09 36.0966 139.823 36.5567 140.31C37.534 141.333 38.7922 142.043 40.1725 142.351C41.5529 142.66 42.9937 142.553 44.3133 142.044" fill="#933964"/>
<path d="M44.29 141.867C43.6041 140.725 42.6563 139.763 41.5248 139.059C40.3934 138.356 39.1109 137.933 37.7833 137.823C37.1167 137.777 36.2966 137.89 35.9966 138.49C35.6966 139.09 36.0966 139.823 36.5567 140.31C37.534 141.333 38.7922 142.043 40.1725 142.351C41.5529 142.66 42.9937 142.553 44.3133 142.044" fill="black" fill-opacity="0.2"/>
<path d="M38.81 139.63C38.9513 139.623 39.093 139.629 39.2333 139.647C39.3977 139.656 39.5613 139.675 39.7233 139.703C39.9133 139.74 40.1367 139.76 40.37 139.827C40.6308 139.882 40.888 139.953 41.14 140.04C41.432 140.134 41.7181 140.245 41.9967 140.373C42.6375 140.661 43.2436 141.02 43.8034 141.443C44.3566 141.878 44.8578 142.374 45.2967 142.924C45.4863 143.163 45.661 143.413 45.82 143.674C45.9638 143.898 46.0951 144.131 46.2134 144.37C46.3135 144.565 46.4026 144.765 46.4801 144.97C46.5469 145.122 46.6037 145.278 46.6501 145.437C46.6994 145.57 46.7363 145.707 46.7601 145.847C46.7234 145.847 46.5634 145.274 46.1134 144.42C45.9908 144.191 45.8562 143.968 45.71 143.754C45.5476 143.501 45.3718 143.257 45.1834 143.024C44.3115 141.946 43.1996 141.088 41.9367 140.517C41.6467 140.39 41.37 140.27 41.1 140.183C40.8521 140.093 40.5996 140.016 40.3434 139.953C39.41 139.697 38.8067 139.667 38.81 139.63Z" fill="#263238"/>
<path d="M190.12 35.1601C189.14 35.3835 188.663 36.5135 188.57 37.5135C188.477 38.5135 188.603 39.5735 188.183 40.4868C187.71 41.5135 186.58 42.2735 186.543 43.4035C186.52 44.0935 186.93 44.7368 186.91 45.4335C186.877 46.5668 185.723 47.4334 185.66 48.5534C185.617 49.3701 186.16 50.1501 186.03 50.9568C185.93 51.5834 185.44 52.0768 185.233 52.6768C184.823 53.8768 185.647 55.1934 186.717 55.8668C187.316 56.2437 187.991 56.4851 188.693 56.5742C189.396 56.6634 190.109 56.598 190.783 56.3828C191.458 56.1676 192.077 55.8076 192.598 55.3281C193.12 54.8487 193.53 54.2612 193.8 53.6068C194.393 52.1668 194.263 50.5434 194.133 48.9934C193.733 44.1579 193.435 39.3157 193.24 34.4668" fill="#263238"/>
<path d="M187.273 52.2202C187.475 52.0949 187.632 51.9095 187.723 51.6902C187.819 51.4293 187.858 51.1507 187.837 50.8735C187.8 50.506 187.718 50.1444 187.593 49.7968C187.434 49.36 187.375 48.893 187.42 48.4302C187.503 47.9102 187.877 47.4835 188.213 47.0635C188.395 46.858 188.546 46.6279 188.663 46.3802C188.781 46.1296 188.8 45.8441 188.717 45.5802C188.543 45.0369 188.01 44.6369 187.767 44.0069C187.652 43.695 187.634 43.356 187.713 43.0335C187.789 42.7311 187.901 42.439 188.047 42.1635C188.328 41.6674 188.552 41.1406 188.713 40.5935C188.947 39.5369 188.837 38.5269 188.997 37.6969C189.085 37.0321 189.38 36.4119 189.84 35.9235C189.97 35.792 190.118 35.6797 190.28 35.5902C190.336 35.5611 190.395 35.5398 190.457 35.5269C190.248 35.6419 190.056 35.7855 189.887 35.9535C189.461 36.4468 189.193 37.0563 189.117 37.7035C189.058 38.1456 189.027 38.5909 189.023 39.0369C189.022 39.5617 188.971 40.0852 188.87 40.6002C188.711 41.1598 188.487 41.699 188.203 42.2069C187.953 42.7302 187.723 43.3435 187.943 43.9169C188.163 44.4902 188.693 44.8869 188.897 45.5002C188.988 45.8032 188.966 46.1293 188.833 46.4168C188.703 46.6895 188.535 46.9421 188.333 47.1668C188 47.5868 187.637 47.9868 187.557 48.4535C187.51 48.8961 187.562 49.3436 187.71 49.7635C187.829 50.1218 187.903 50.4936 187.93 50.8702C187.946 51.1602 187.895 51.4501 187.78 51.7168C187.708 51.8841 187.593 52.0291 187.447 52.1368C187.394 52.175 187.336 52.2033 187.273 52.2202Z" fill="#455A64"/>
<path d="M184.667 60.1235L181.667 68.7902L169.12 69.4569L167.027 74.1235L180.127 75.4569C180.746 75.711 181.41 75.837 182.079 75.8272C182.748 75.8175 183.408 75.6722 184.019 75.4003C184.63 75.1283 185.18 74.7352 185.635 74.2448C186.09 73.7543 186.441 73.1767 186.667 72.5469L190.163 62.7869L184.667 60.1235Z" fill="#B78876"/>
<path d="M210.603 141.9C210.603 141.9 201.41 112.694 201.213 111.747C201.037 110.887 204.547 89.8702 204.993 84.4136L192.57 84.8769V85.0002L187.29 85.2936L192.017 145H197.733L197.167 125.184C200.693 134.647 205.747 144.294 205.747 144.294L210.603 141.9Z" fill="#B78876"/>
<path d="M197.4 132.293C197.4 132.113 197.33 125.653 197.33 125.653C197.26 126.04 195.14 120.047 195.19 119.683C195.217 119.493 197.4 132.293 197.4 132.293Z" fill="#A36957"/>
<path d="M194.95 116.844C194.921 116.962 194.908 117.085 194.913 117.207C194.895 117.54 194.895 117.874 194.913 118.207C194.913 118.417 194.943 118.644 194.97 118.89C194.997 119.137 195.033 119.397 195.09 119.667C195.209 120.256 195.366 120.838 195.56 121.407C195.973 122.617 196.433 123.673 196.757 124.44C196.91 124.773 197.043 125.09 197.157 125.343C197.198 125.461 197.254 125.573 197.323 125.677C197.306 125.562 197.272 125.449 197.223 125.343C197.147 125.123 197.03 124.807 196.89 124.417C196.597 123.637 196.157 122.57 195.747 121.373C195.553 120.813 195.394 120.241 195.27 119.66C195.21 119.394 195.17 119.137 195.133 118.897C195.097 118.657 195.07 118.43 195.053 118.23C195.013 117.817 194.997 117.484 194.987 117.25C194.993 117.114 194.981 116.977 194.95 116.844Z" fill="#A36957"/>
<path d="M191.91 145.304V144.767L197.767 144.51L197.783 146.727L197.423 146.75C195.813 146.843 189.24 147.117 188.167 146.793C186.963 146.433 191.91 145.304 191.91 145.304Z" fill="#455A64"/>
<path d="M197.86 146.594C197.827 146.596 197.793 146.596 197.76 146.594L197.473 146.614L196.413 146.66C195.52 146.697 194.283 146.73 192.92 146.737C191.557 146.744 190.317 146.72 189.42 146.694L188.363 146.65H188.073H187.973C188.007 146.648 188.04 146.648 188.073 146.65H188.363L189.423 146.67C190.317 146.67 191.553 146.697 192.917 146.69C194.28 146.684 195.52 146.66 196.413 146.637L197.473 146.61H197.86V146.594Z" fill="#263238"/>
<path d="M190 146.78C189.951 146.606 189.884 146.437 189.8 146.277C189.695 146.129 189.573 145.994 189.437 145.874C189.619 145.939 189.77 146.069 189.86 146.24C189.97 146.397 190.02 146.589 190 146.78Z" fill="#263238"/>
<path d="M191.727 145.903C191.727 145.903 191.63 145.813 191.543 145.68C191.457 145.547 191.403 145.43 191.42 145.42C191.437 145.41 191.517 145.507 191.603 145.64C191.69 145.773 191.743 145.893 191.727 145.903Z" fill="#263238"/>
<path d="M192.2 145.667C192.2 145.684 192.093 145.62 191.993 145.53C191.893 145.44 191.82 145.357 191.833 145.344C191.847 145.33 191.94 145.39 192.04 145.48C192.14 145.57 192.213 145.637 192.2 145.667Z" fill="#263238"/>
<path d="M192.497 145.1C192.399 145.136 192.294 145.15 192.19 145.14C192.088 145.153 191.984 145.143 191.887 145.11C191.983 145.074 192.087 145.061 192.19 145.07C192.293 145.056 192.398 145.066 192.497 145.1Z" fill="#263238"/>
<path d="M192.597 144.714C192.497 144.778 192.382 144.813 192.263 144.814C192.15 144.829 192.035 144.812 191.93 144.767C192.04 144.748 192.152 144.739 192.263 144.74C192.373 144.721 192.485 144.712 192.597 144.714Z" fill="#263238"/>
<path d="M191.53 145.393C191.406 145.417 191.278 145.417 191.153 145.393C191.019 145.377 190.886 145.348 190.757 145.307C190.677 145.285 190.6 145.253 190.527 145.213C190.482 145.187 190.449 145.146 190.433 145.097C190.427 145.069 190.429 145.04 190.44 145.013C190.45 144.987 190.467 144.964 190.49 144.947C190.582 144.902 190.684 144.878 190.786 144.877C190.889 144.877 190.99 144.898 191.083 144.941C191.176 144.984 191.259 145.048 191.324 145.126C191.39 145.205 191.438 145.297 191.463 145.397C191.47 145.43 191.47 145.464 191.463 145.497C191.426 145.376 191.367 145.263 191.29 145.163C191.201 145.064 191.086 144.992 190.957 144.957C190.809 144.909 190.649 144.921 190.51 144.99C190.454 145.033 190.477 145.103 190.54 145.143C190.608 145.18 190.68 145.21 190.753 145.233C190.879 145.275 191.007 145.307 191.137 145.33C191.387 145.383 191.53 145.383 191.53 145.393Z" fill="#263238"/>
<path d="M191.433 145.413C191.385 145.336 191.368 145.243 191.387 145.153C191.399 145.055 191.434 144.962 191.49 144.88C191.521 144.824 191.566 144.778 191.62 144.744C191.674 144.71 191.736 144.69 191.8 144.687C191.838 144.696 191.871 144.718 191.892 144.75C191.914 144.783 191.923 144.822 191.917 144.86C191.908 144.92 191.887 144.977 191.853 145.027C191.803 145.109 191.743 145.187 191.677 145.257C191.619 145.323 191.545 145.375 191.463 145.407C191.463 145.407 191.537 145.34 191.64 145.22C191.7 145.151 191.752 145.077 191.797 144.997C191.847 144.917 191.883 144.773 191.797 144.757C191.71 144.74 191.61 144.843 191.553 144.917C191.5 144.989 191.464 145.072 191.447 145.16C191.433 145.244 191.429 145.329 191.433 145.413Z" fill="#263238"/>
<path d="M197.737 145C197.737 145 197.57 145 197.307 145.017C196.964 145.058 196.639 145.195 196.37 145.411C196.101 145.627 195.897 145.914 195.783 146.24C195.697 146.49 195.69 146.66 195.677 146.657C195.663 146.654 195.677 146.614 195.677 146.54C195.685 146.433 195.705 146.327 195.737 146.224C195.843 145.882 196.047 145.58 196.323 145.354C196.603 145.132 196.943 144.998 197.3 144.97C197.411 144.957 197.523 144.957 197.633 144.97C197.669 144.976 197.704 144.986 197.737 145Z" fill="#263238"/>
<path d="M194.933 146.127C194.654 146.192 194.367 146.22 194.08 146.21C193.795 146.224 193.509 146.2 193.23 146.137C193.23 146.117 193.61 146.137 194.08 146.137C194.55 146.137 194.93 146.107 194.933 146.127Z" fill="#263238"/>
<path d="M196.073 146.117C196.073 146.117 196.043 146.197 196.003 146.283C195.963 146.37 195.943 146.45 195.923 146.447C195.903 146.443 195.893 146.357 195.94 146.253C195.987 146.15 196.06 146.1 196.073 146.117Z" fill="#263238"/>
<path d="M196.529 145.58C196.529 145.58 196.503 145.662 196.436 145.729C196.369 145.795 196.302 145.84 196.284 145.825C196.265 145.81 196.31 145.744 196.376 145.673C196.443 145.603 196.51 145.562 196.529 145.58Z" fill="#263238"/>
<path d="M197.117 145.334C197.117 145.354 197.037 145.354 196.95 145.384C196.863 145.414 196.803 145.46 196.787 145.447C196.77 145.434 196.82 145.354 196.927 145.317C197.034 145.28 197.124 145.314 197.117 145.334Z" fill="#263238"/>
<path d="M197.588 145.216C197.588 145.24 197.56 145.276 197.5 145.296C197.44 145.316 197.388 145.32 197.38 145.296C197.372 145.272 197.412 145.236 197.468 145.216C197.524 145.196 197.58 145.196 197.588 145.216Z" fill="#263238"/>
<path d="M205.63 144.787L205.41 144.297L210.647 141.667L211.57 143.667L211.237 143.837C209.807 144.58 203.923 147.52 202.81 147.667C201.58 147.843 205.63 144.787 205.63 144.787Z" fill="#455A64"/>
<path d="M211.59 143.523L211.504 143.577L211.247 143.71L210.3 144.19C209.5 144.587 208.387 145.124 207.143 145.69C205.9 146.257 204.76 146.74 203.933 147.084L202.95 147.48L202.683 147.584C202.652 147.598 202.62 147.608 202.586 147.614L202.676 147.57L202.94 147.454L203.913 147.037C204.737 146.684 205.87 146.19 207.113 145.624C208.357 145.057 209.474 144.53 210.28 144.143L211.234 143.687L211.497 143.563L211.59 143.523Z" fill="#263238"/>
<path d="M204.507 146.914C204.391 146.773 204.26 146.646 204.117 146.534C203.96 146.441 203.794 146.367 203.62 146.314C203.811 146.311 203.999 146.367 204.158 146.474C204.316 146.582 204.438 146.735 204.507 146.914Z" fill="#263238"/>
<path d="M205.71 145.407C205.71 145.407 205.583 145.367 205.45 145.28C205.317 145.193 205.22 145.11 205.23 145.093C205.24 145.077 205.357 145.133 205.49 145.22C205.623 145.307 205.72 145.39 205.71 145.407Z" fill="#263238"/>
<path d="M206.037 145C206.037 145.017 205.923 145 205.793 144.96C205.663 144.92 205.566 144.87 205.57 144.85C205.654 144.842 205.739 144.856 205.817 144.89C205.943 144.92 206.043 144.967 206.037 145Z" fill="#263238"/>
<path d="M206.083 144.36C206.083 144.38 205.973 144.45 205.82 144.524C205.732 144.577 205.633 144.61 205.53 144.62C205.53 144.6 205.64 144.53 205.79 144.457C205.88 144.404 205.98 144.371 206.083 144.36Z" fill="#263238"/>
<path d="M206.017 143.967C206.017 143.967 205.92 144.1 205.747 144.197C205.648 144.264 205.532 144.299 205.413 144.297C205.509 144.233 205.61 144.178 205.717 144.134C205.88 144.044 206 143.95 206.017 143.967Z" fill="#263238"/>
<path d="M205.333 145.027C205.232 145.096 205.119 145.148 205 145.18C204.869 145.218 204.735 145.246 204.6 145.263C204.518 145.274 204.435 145.274 204.353 145.263C204.302 145.26 204.254 145.236 204.22 145.197C204.205 145.173 204.196 145.145 204.196 145.117C204.196 145.088 204.205 145.061 204.22 145.037C204.321 144.914 204.462 144.83 204.618 144.8C204.775 144.769 204.937 144.794 205.077 144.87C205.159 144.913 205.232 144.974 205.29 145.047C205.33 145.1 205.347 145.133 205.343 145.137C205.261 145.045 205.163 144.969 205.053 144.913C204.936 144.858 204.805 144.839 204.677 144.857C204.6 144.865 204.526 144.888 204.459 144.924C204.391 144.961 204.332 145.01 204.283 145.07C204.247 145.133 204.283 145.187 204.373 145.197C204.45 145.203 204.527 145.203 204.603 145.197C204.736 145.183 204.868 145.16 204.997 145.127C205.187 145.073 205.333 145.017 205.333 145.027Z" fill="#263238"/>
<path d="M205.24 145.083C205.166 145.031 205.113 144.952 205.093 144.863C205.064 144.77 205.057 144.67 205.073 144.573C205.079 144.509 205.101 144.448 205.137 144.395C205.173 144.342 205.223 144.299 205.28 144.27C205.363 144.243 205.557 144.413 205.57 144.477C205.583 144.54 205.473 144.507 205.467 144.56C205.456 144.655 205.434 144.748 205.4 144.837C205.376 144.922 205.33 145 205.267 145.063C205.267 145.063 205.307 144.973 205.353 144.823C205.377 144.735 205.394 144.644 205.403 144.553C205.403 144.46 205.403 144.317 205.297 144.34C205.19 144.363 205.16 144.493 205.137 144.587C205.116 144.673 205.116 144.763 205.137 144.85C205.164 144.931 205.199 145.009 205.24 145.083Z" fill="#263238"/>
<path d="M210.823 142.12C210.823 142.12 210.664 142.177 210.437 142.313C210.14 142.491 209.899 142.747 209.74 143.054C209.586 143.363 209.52 143.709 209.55 144.054C209.57 144.32 209.634 144.474 209.62 144.48C209.599 144.447 209.582 144.411 209.57 144.374C209.537 144.272 209.514 144.167 209.5 144.06C209.453 143.705 209.514 143.344 209.677 143.025C209.839 142.706 210.095 142.444 210.41 142.273C210.505 142.221 210.604 142.179 210.707 142.147C210.744 142.132 210.784 142.123 210.823 142.12Z" fill="#263238"/>
<path d="M208.727 144.3C208.257 144.627 207.732 144.867 207.177 145.007C207.177 144.987 207.527 144.854 207.953 144.674C208.38 144.494 208.717 144.284 208.727 144.3Z" fill="#263238"/>
<path d="M209.763 143.823C209.78 143.823 209.763 143.907 209.763 144.003C209.763 144.1 209.763 144.18 209.763 144.187C209.763 144.193 209.697 144.113 209.697 144.003C209.697 143.893 209.747 143.813 209.763 143.823Z" fill="#263238"/>
<path d="M209.933 143.157C209.95 143.157 209.933 143.234 209.913 143.314C209.893 143.394 209.843 143.454 209.827 143.447C209.81 143.44 209.827 143.37 209.847 143.29C209.867 143.21 209.913 143.15 209.933 143.157Z" fill="#263238"/>
<path d="M210.394 142.667C210.394 142.687 210.327 142.717 210.261 142.78C210.194 142.844 210.157 142.911 210.14 142.904C210.123 142.898 210.14 142.804 210.214 142.727C210.287 142.65 210.391 142.667 210.394 142.667Z" fill="#263238"/>
<path d="M210.77 142.394C210.77 142.394 210.77 142.458 210.722 142.503C210.674 142.547 210.63 142.571 210.614 142.555C210.598 142.539 210.614 142.491 210.662 142.446C210.71 142.402 210.754 142.378 210.77 142.394Z" fill="#263238"/>
<path d="M204.187 74.5468L203.213 62.6468L208.213 62.7368C208.213 62.7368 208.443 60.9801 207.706 57.1334C207.253 54.7734 205.683 53.3268 203.92 52.4668V52.4334L203.767 52.3934C202.315 51.7418 200.765 51.3373 199.18 51.1968L193.03 51.2668C193.03 51.2668 188.333 50.6668 185.743 54.0301C184.743 55.3201 181.64 64.1501 181.64 64.1501L189.023 67.7035L188.333 62.8068C188.333 62.8068 188.473 66.3568 188.927 67.4735C189.177 68.1001 189.927 70.0468 189.927 70.0468L189.83 75.9201L204.187 74.5468Z" fill="#2B92D5"/>
<path d="M200.797 60.92L199.883 64.8067H208.493L207.927 58.2866L200.797 60.92Z" fill="#2B92D5"/>
<path d="M208.493 64.8069C208.117 64.7376 207.736 64.6997 207.353 64.6936C206.647 64.6536 205.687 64.6169 204.593 64.6236C203.5 64.6303 202.537 64.6769 201.83 64.7303C201.448 64.7436 201.067 64.7904 200.693 64.8703C201.075 64.9007 201.458 64.9007 201.84 64.8703C202.543 64.8469 203.507 64.8203 204.593 64.8169C205.68 64.8136 206.643 64.8169 207.35 64.8336C207.731 64.855 208.114 64.846 208.493 64.8069Z" fill="#263238"/>
<path d="M200.423 58.2568C200.382 58.5885 200.373 58.9234 200.397 59.2568C200.397 59.8668 200.423 60.7068 200.46 61.6368C200.497 62.5668 200.54 63.4102 200.58 64.0169C200.582 64.3529 200.617 64.688 200.687 65.0169C200.728 64.6851 200.737 64.3503 200.713 64.0169C200.713 63.4068 200.687 62.5635 200.65 61.6335C200.613 60.7035 200.57 59.8635 200.53 59.2535C200.529 58.9185 200.493 58.5845 200.423 58.2568Z" fill="#263238"/>
<g opacity="0.3">
<path opacity="0.3" d="M192.59 61.6235C192.59 61.6235 194.503 75.8136 199.883 75.4369C199.883 75.4369 202.307 75.4102 203.084 73.8002V73.1669L192.59 61.6235Z" fill="black"/>
</g>
<g opacity="0.3">
<path opacity="0.3" d="M200.423 59.0935L199.393 66.0502L200.06 67.2702L201.16 64.8835L200.693 64.8702L200.423 59.0935Z" fill="black"/>
</g>
<path d="M189.897 70.0533C189.833 69.9494 189.783 69.8373 189.75 69.72C189.667 69.5033 189.557 69.1867 189.417 68.79C189.083 67.7564 188.808 66.7047 188.593 65.64C188.379 64.5747 188.243 63.4952 188.187 62.41C188.167 61.9934 188.16 61.6567 188.167 61.41C188.158 61.2895 188.166 61.1684 188.19 61.05C188.217 61.05 188.237 61.5634 188.307 62.3834C188.4 63.4587 188.553 64.528 188.763 65.5867C189.01 66.8267 189.307 67.9367 189.533 68.7333C189.64 69.1033 189.73 69.42 189.803 69.68C189.849 69.8003 189.88 69.9256 189.897 70.0533Z" fill="#263238"/>
<path d="M192.07 74.13C192.023 74.13 191.89 73.84 191.773 73.4633C191.673 73.2325 191.628 72.9812 191.643 72.73C191.79 72.9337 191.892 73.1668 191.94 73.4133C192.036 73.6397 192.08 73.8844 192.07 74.13Z" fill="#263238"/>
<path d="M192.813 74.0769C192.561 73.4082 192.551 72.6725 192.783 71.9968C192.809 72.343 192.809 72.6907 192.783 73.0368C192.82 73.3823 192.83 73.7299 192.813 74.0769Z" fill="#263238"/>
<path d="M189.173 67.8668C189.15 67.9068 187.433 67.0934 185.337 66.0467C183.24 65 181.557 64.1133 181.577 64.07C181.597 64.0267 183.317 64.8434 185.413 65.89C187.51 66.9367 189.193 67.8234 189.173 67.8668Z" fill="#263238"/>
<path d="M192.2 52.4168C192.237 50.7301 192.247 48.9568 192.247 48.9568C192.247 48.9568 190.083 48.5401 189.707 45.6934C189.347 42.9801 190.353 36.6101 190.353 36.6101C193.513 35.4168 196.797 36.5001 198.96 39.0601L198.423 52.7501C198.36 54.3401 196.943 55.5534 195.243 55.4734C193.523 55.3901 192.163 54.0234 192.2 52.4168Z" fill="#B78876"/>
<path d="M190.187 41.7C190.184 41.7935 190.217 41.8845 190.279 41.9545C190.341 42.0245 190.427 42.0682 190.52 42.0767C190.567 42.0813 190.615 42.0761 190.66 42.0617C190.706 42.0472 190.748 42.0236 190.783 41.9924C190.819 41.9612 190.848 41.9231 190.869 41.8802C190.89 41.8374 190.901 41.7908 190.903 41.7433C190.906 41.6502 190.873 41.5596 190.811 41.4901C190.749 41.4206 190.663 41.3776 190.57 41.37C190.523 41.3628 190.474 41.3659 190.428 41.3792C190.382 41.3925 190.339 41.4156 190.303 41.4469C190.266 41.4783 190.237 41.5171 190.217 41.5608C190.197 41.6045 190.187 41.652 190.187 41.7Z" fill="#263238"/>
<path d="M190.053 41.2234C190.097 41.27 190.387 41.0734 190.77 41.0867C191.153 41.1 191.437 41.3 191.483 41.2534C191.53 41.2067 191.463 41.1467 191.34 41.05C191.173 40.9291 190.973 40.8628 190.767 40.8601C190.564 40.8523 190.364 40.9108 190.197 41.0267C190.073 41.1167 190.03 41.2 190.053 41.2234Z" fill="#263238"/>
<path d="M194.157 41.9468C194.153 42.0405 194.185 42.132 194.248 42.2021C194.31 42.2723 194.396 42.3158 194.49 42.3235C194.538 42.3307 194.586 42.3275 194.633 42.314C194.679 42.3006 194.722 42.2772 194.759 42.2455C194.795 42.2137 194.824 42.1745 194.844 42.1304C194.864 42.0863 194.874 42.0385 194.873 41.9901C194.877 41.8968 194.844 41.8057 194.782 41.7361C194.72 41.6664 194.633 41.6237 194.54 41.6168C194.492 41.6096 194.444 41.6127 194.398 41.626C194.352 41.6393 194.309 41.6624 194.272 41.6938C194.236 41.7251 194.207 41.7639 194.187 41.8076C194.167 41.8513 194.157 41.8988 194.157 41.9468Z" fill="#263238"/>
<path d="M194.13 41.4702C194.173 41.5202 194.463 41.3236 194.847 41.3336C195.23 41.3436 195.513 41.5469 195.563 41.5002C195.613 41.4536 195.54 41.3936 195.417 41.3002C195.252 41.1761 195.052 41.1083 194.847 41.1069C194.643 41.1008 194.442 41.1591 194.273 41.2735C194.153 41.3636 194.11 41.4469 194.13 41.4702Z" fill="#263238"/>
<path d="M192.637 44.3334C192.432 44.2631 192.219 44.2194 192.003 44.2034C191.903 44.2034 191.81 44.1668 191.797 44.1001C191.789 43.9959 191.814 43.8919 191.87 43.8034L192.183 43.0534C192.475 42.416 192.714 41.7561 192.9 41.0801C192.559 41.6926 192.267 42.3313 192.027 42.9901C191.923 43.2534 191.82 43.5068 191.723 43.7468C191.659 43.8659 191.637 44.0038 191.663 44.1368C191.676 44.1729 191.698 44.2056 191.725 44.2321C191.753 44.2587 191.787 44.2786 191.823 44.2901C191.879 44.3061 191.936 44.3151 191.993 44.3168C192.206 44.3496 192.422 44.3552 192.637 44.3334Z" fill="#263238"/>
<path d="M192.247 48.9567C193.58 49.0101 194.903 48.6928 196.067 48.04C196.067 48.04 195.097 49.9634 192.267 49.6267L192.247 48.9567Z" fill="#A36957"/>
<path d="M195.383 40.3334C195.303 40.4568 195.003 40.4034 194.67 40.3334C194.337 40.2635 194.043 40.2068 194.003 40.0635C193.963 39.9202 194.313 39.7302 194.76 39.8202C195.207 39.9102 195.463 40.2268 195.383 40.3334Z" fill="#263238"/>
<path d="M191.493 39.7668C191.463 39.9102 191.143 39.9635 190.777 39.9801C190.41 39.9968 190.087 39.9801 190.043 39.8335C190 39.6868 190.31 39.4802 190.753 39.4602C191.197 39.4402 191.523 39.6302 191.493 39.7668Z" fill="#263238"/>
<path d="M192.643 45.2701C192.601 45.2601 192.557 45.2645 192.518 45.2827C192.479 45.3008 192.446 45.3316 192.427 45.3701C192.408 45.4041 192.398 45.4424 192.398 45.4814C192.399 45.5203 192.409 45.5584 192.429 45.592C192.449 45.6256 192.477 45.6534 192.511 45.6728C192.545 45.6921 192.583 45.7023 192.622 45.7023C192.661 45.7023 192.699 45.6921 192.733 45.6728C192.766 45.6534 192.795 45.6256 192.814 45.592C192.834 45.5584 192.845 45.5203 192.845 45.4814C192.845 45.4424 192.836 45.4041 192.817 45.3701C192.793 45.3253 192.754 45.29 192.708 45.27C192.661 45.25 192.609 45.2465 192.56 45.2601" fill="#A36957"/>
<path d="M192.733 45.31C192.733 45.2933 192.67 45.1967 192.5 45.2333C192.449 45.2466 192.403 45.273 192.365 45.3098C192.328 45.3467 192.301 45.3927 192.287 45.4433C192.269 45.5072 192.27 45.5749 192.291 45.6378C192.312 45.7007 192.351 45.756 192.403 45.7967C192.459 45.8346 192.524 45.855 192.592 45.855C192.659 45.855 192.725 45.8346 192.78 45.7967C192.824 45.7668 192.859 45.7249 192.88 45.6759C192.902 45.6268 192.909 45.5728 192.9 45.52C192.867 45.3433 192.737 45.3167 192.73 45.34C192.723 45.3633 192.777 45.4233 192.767 45.5267C192.764 45.5522 192.756 45.5768 192.742 45.5983C192.728 45.6198 192.709 45.6376 192.687 45.65C192.661 45.6649 192.631 45.6728 192.602 45.6728C192.572 45.6728 192.542 45.6649 192.517 45.65C192.493 45.6303 192.476 45.6049 192.465 45.5762C192.455 45.5476 192.452 45.5168 192.457 45.4867C192.46 45.4603 192.471 45.4353 192.486 45.4138C192.502 45.3923 192.523 45.375 192.547 45.3633C192.64 45.3067 192.723 45.3333 192.733 45.31Z" fill="#263238"/>
<path d="M197.667 42.4033C197.333 43.1833 196.507 43.7867 196.62 44.63C196.693 45.1733 197.043 45.68 196.977 46.2267C196.89 46.8933 196.18 47.3867 196.077 48.07C195.953 48.9067 196.77 49.5567 197.093 50.3367C197.57 51.4767 196.963 52.7567 196.947 54.0033C196.966 54.9498 197.328 55.8571 197.966 56.557C198.603 57.257 199.473 57.7021 200.413 57.81C201.173 57.8733 202.03 57.6433 202.413 56.99C202.747 56.45 202.673 55.7633 202.867 55.1667C203.16 54.2733 204.01 53.62 204.2 52.7C204.533 51.0333 202.5 49.6333 202.633 47.9267C202.69 47.1967 203.14 46.5633 203.33 45.8567C203.451 45.3922 203.46 44.9058 203.357 44.4371C203.254 43.9684 203.041 43.5307 202.737 43.16C202.233 42.5633 201.507 42.16 201.07 41.52C200.587 40.7833 200.57 39.8533 200.403 38.9833C200.179 37.9259 199.691 36.9424 198.984 36.1249C198.277 35.3073 197.374 34.6824 196.36 34.3085C195.346 33.9346 194.254 33.8239 193.185 33.9868C192.116 34.1497 191.107 34.5809 190.25 35.24C190.25 35.24 189.767 37.4367 192.023 37.8067C194.28 38.1767 195.323 37.75 195.577 38.6533C195.517 39.0255 195.546 39.4064 195.662 39.7651C195.778 40.1237 195.977 40.4498 196.243 40.7167C197.163 41.71 198.04 41.4967 197.667 42.4033Z" fill="#263238"/>
<path d="M201.25 57.64C201.181 57.6424 201.111 57.6356 201.043 57.62C200.848 57.5853 200.656 57.5329 200.47 57.4633C199.782 57.1994 199.178 56.7536 198.723 56.1733C198.404 55.7729 198.154 55.3223 197.983 54.84C197.788 54.2906 197.686 53.7128 197.68 53.13C197.673 52.4876 197.754 51.8472 197.92 51.2266C198.011 50.8989 198.122 50.5771 198.253 50.2633C198.391 49.9509 198.512 49.6316 198.617 49.3066C198.708 48.9864 198.708 48.6469 198.617 48.3266C198.519 48.0114 198.393 47.7057 198.24 47.4133C198.085 47.1234 197.955 46.8213 197.85 46.51C197.747 46.2019 197.723 45.873 197.78 45.5533C197.913 44.9266 198.293 44.46 198.52 43.9833C198.736 43.5421 198.839 43.0542 198.82 42.5633C198.79 41.845 198.529 41.1554 198.077 40.5966C197.901 40.4009 197.713 40.2171 197.513 40.0466C197.747 40.1779 197.956 40.3495 198.13 40.5533C198.615 41.1113 198.902 41.8149 198.943 42.5533C198.971 43.0656 198.87 43.5766 198.65 44.04C198.42 44.5333 198.05 45.0033 197.937 45.5766C197.823 46.15 198.093 46.7533 198.39 47.3333C198.552 47.6341 198.683 47.95 198.783 48.2766C198.882 48.6254 198.882 48.9946 198.783 49.3433C198.672 49.6796 198.544 50.01 198.4 50.3333C198.269 50.6403 198.157 50.9554 198.067 51.2766C197.901 51.8815 197.819 52.5062 197.823 53.1333C197.813 54.2013 198.158 55.2425 198.803 56.0933C199.235 56.6663 199.81 57.1158 200.47 57.3967C200.967 57.59 201.253 57.62 201.25 57.64Z" fill="#455A64"/>
<path d="M200.917 40.82C200.754 40.8621 200.588 40.8867 200.42 40.8933C199.963 40.9423 199.501 40.9299 199.047 40.8567C198.703 40.8057 198.372 40.6866 198.074 40.5063C197.777 40.326 197.518 40.0882 197.313 39.8067C197.123 39.4506 196.971 39.0751 196.86 38.6867C196.718 38.2987 196.45 37.9692 196.1 37.75C195.37 37.2867 194.513 37.2301 193.767 37.1401C193.078 37.1057 192.409 36.897 191.823 36.5334C191.431 36.2734 191.148 35.8784 191.027 35.4234C190.998 35.3001 190.99 35.1727 191.003 35.0467C191.003 34.9601 191.023 34.9167 191.03 34.9167C191.034 35.0818 191.055 35.2461 191.093 35.4067C191.231 35.8322 191.515 36.1956 191.893 36.4334C192.469 36.769 193.118 36.9568 193.783 36.9801C194.53 37.0667 195.417 37.1101 196.197 37.6034C196.578 37.8431 196.869 38.2032 197.023 38.6267C197.128 39.0053 197.272 39.3717 197.453 39.72C197.842 40.2526 198.423 40.6117 199.073 40.72C199.513 40.8017 199.96 40.8319 200.407 40.81C200.577 40.8005 200.747 40.8038 200.917 40.82Z" fill="#455A64"/>
<path d="M200.09 38.1067C199.964 38.1487 199.832 38.1679 199.7 38.1634C199.079 38.1676 198.48 37.9283 198.033 37.4967C197.829 37.2923 197.656 37.06 197.517 36.8067C197.217 36.3001 196.927 35.6767 196.303 35.4167C195.703 35.2153 195.063 35.1593 194.437 35.2534C193.908 35.3277 193.372 35.3277 192.843 35.2534C192.476 35.2024 192.129 35.05 191.843 34.8134C191.77 34.749 191.704 34.675 191.65 34.5934C191.61 34.5356 191.593 34.5056 191.6 34.5034C191.6 34.5034 191.693 34.6101 191.887 34.7601C192.172 34.9628 192.503 35.0911 192.85 35.1334C193.369 35.1919 193.893 35.183 194.41 35.1067C195.064 35 195.734 35.0572 196.36 35.2734C196.682 35.4181 196.958 35.6488 197.157 35.9401C197.332 36.1999 197.494 36.4692 197.64 36.7467C197.772 36.989 197.934 37.2131 198.123 37.4134C198.291 37.5827 198.483 37.7255 198.693 37.8367C199.003 37.9986 199.344 38.0929 199.693 38.1134C199.95 38.11 200.087 38.09 200.09 38.1067Z" fill="#455A64"/>
<path d="M202.243 56.9202C202.227 56.9202 202.333 56.7002 202.457 56.2869C202.624 55.7066 202.698 55.1036 202.677 54.5002C202.653 53.607 202.409 52.7335 201.967 51.9568C201.723 51.5202 201.353 51.1302 201.05 50.6502C200.889 50.4057 200.776 50.1331 200.717 49.8468C200.664 49.5455 200.689 49.2357 200.79 48.9468C200.977 48.3702 201.31 47.8868 201.383 47.3568C201.457 46.8268 201.203 46.3568 200.95 45.9135C200.819 45.6978 200.7 45.4752 200.593 45.2468C200.496 45.0253 200.432 44.7905 200.403 44.5502C200.372 44.1266 200.385 43.7009 200.443 43.2802C200.55 42.6854 200.495 42.0729 200.283 41.5068C200.189 41.3085 200.055 41.1316 199.89 40.9868C199.89 40.9868 199.907 40.9868 199.93 41.0068C199.969 41.0264 200.005 41.0523 200.037 41.0835C200.167 41.1921 200.273 41.3273 200.347 41.4802C200.588 42.0511 200.663 42.6785 200.563 43.2902C200.517 43.7031 200.512 44.1195 200.547 44.5335C200.629 44.9992 200.813 45.4409 201.087 45.8268C201.229 46.0521 201.35 46.2897 201.45 46.5368C201.555 46.8036 201.589 47.0929 201.55 47.3768C201.47 47.9602 201.127 48.4535 200.953 48.9968C200.862 49.259 200.838 49.5397 200.883 49.8135C200.941 50.0783 201.048 50.3303 201.197 50.5568C201.48 51.0202 201.863 51.4168 202.107 51.8735C202.553 52.6763 202.792 53.5782 202.8 54.4969C202.811 55.1117 202.716 55.7239 202.52 56.3069C202.467 56.4646 202.402 56.6184 202.327 56.7669C202.306 56.8217 202.278 56.8733 202.243 56.9202Z" fill="#455A64"/>
<path d="M188.667 119.03C188.667 119.03 186.42 97.7501 186.29 89.8868C186.16 82.0234 189.827 74.2634 189.827 74.2634L204.186 73.6667C204.186 73.6667 207.026 81.6434 207.076 85.0001C207.176 91.5134 205.346 97.9434 205.556 103.11L206.036 119.043" fill="#263238"/>
<path d="M206.52 92.8669C206.445 92.932 206.366 92.9921 206.283 93.0469L206.153 93.1369L206.013 93.2736C205.89 93.3804 205.778 93.4999 205.68 93.6303C205.216 94.1969 204.88 95.2136 204.556 96.4769C204.391 97.1777 204.148 97.8575 203.83 98.5036C203.733 98.6805 203.622 98.8489 203.496 99.0069C203.436 99.0869 203.38 99.1736 203.31 99.2503L203.09 99.4703C202.775 99.7647 202.409 99.9996 202.01 100.164C201.207 100.517 200.296 100.684 199.47 101.1C198.623 101.556 197.969 102.301 197.627 103.2C197.22 104.104 196.96 105.05 196.627 105.937C196.293 106.824 195.843 107.67 195.127 108.21C194.441 108.686 193.628 108.943 192.793 108.947C192.02 108.994 191.303 108.97 190.66 109.067C190.081 109.127 189.527 109.336 189.053 109.674C188.707 109.944 188.447 110.31 188.307 110.727C188.217 110.99 188.198 111.271 188.25 111.544C188.29 111.73 188.34 111.82 188.33 111.824C188.276 111.74 188.238 111.647 188.217 111.55C188.146 111.272 188.155 110.98 188.243 110.707C188.376 110.27 188.637 109.883 188.993 109.597C189.479 109.23 190.055 109 190.66 108.93C191.327 108.824 192.037 108.837 192.8 108.787C193.61 108.782 194.399 108.531 195.063 108.067C195.737 107.478 196.234 106.714 196.5 105.86C196.833 104.984 197.077 104.034 197.5 103.114C197.859 102.178 198.543 101.403 199.427 100.93C200.287 100.504 201.196 100.34 201.98 100C202.363 99.8415 202.715 99.6158 203.02 99.3336L203.23 99.1236C203.296 99.0503 203.353 98.9669 203.413 98.8903C203.531 98.7387 203.634 98.577 203.723 98.4069C204.042 97.7698 204.29 97.099 204.46 96.4069C204.793 95.1469 205.156 94.1169 205.646 93.5469C205.744 93.4171 205.856 93.2985 205.98 93.1936C206.033 93.1469 206.08 93.1003 206.126 93.0636L206.263 92.9769C206.346 92.9351 206.432 92.8984 206.52 92.8669Z" fill="#FAFAFA"/>
<path d="M206.607 83.0203C206.622 83.1139 206.629 83.2087 206.627 83.3036C206.626 83.5788 206.592 83.8529 206.527 84.1203C206.24 85.0953 205.676 85.9661 204.904 86.6269C204.394 87.0956 203.835 87.5079 203.237 87.8569C202.593 88.2369 201.883 88.6002 201.153 89.0136C200.387 89.4247 199.673 89.9272 199.027 90.5102C198.364 91.1675 197.819 91.9329 197.413 92.7736C197.005 93.6256 196.538 94.4486 196.017 95.2369C195.752 95.6042 195.445 95.9398 195.103 96.2369C194.766 96.5236 194.396 96.7687 194 96.9669C193.284 97.3187 192.538 97.6054 191.77 97.8235C191.057 98.0435 190.39 98.2402 189.81 98.4902C189.284 98.6996 188.783 98.968 188.317 99.2902C187.966 99.5334 187.651 99.8239 187.38 100.154C187.153 100.439 186.964 100.753 186.817 101.087C186.84 100.994 186.872 100.904 186.91 100.817C187.019 100.565 187.159 100.328 187.327 100.11C187.593 99.7666 187.907 99.4635 188.26 99.2102C188.728 98.8765 189.232 98.597 189.763 98.3769C190.405 98.1152 191.061 97.8871 191.727 97.6935C192.483 97.4703 193.219 97.1826 193.927 96.8335C194.302 96.6378 194.654 96.4008 194.977 96.1269C195.306 95.834 195.601 95.5053 195.857 95.1469C196.371 94.3625 196.833 93.5451 197.24 92.7002C197.658 91.8409 198.222 91.0605 198.907 90.3936C199.564 89.8019 200.292 89.2936 201.073 88.8802C201.807 88.4702 202.517 88.1136 203.16 87.7369C203.757 87.3996 204.315 86.9996 204.827 86.5436C205.593 85.9026 206.161 85.0577 206.467 84.1069C206.552 83.7508 206.599 83.3865 206.607 83.0203Z" fill="#FAFAFA"/>
<path d="M186.363 91.0001C186.35 90.9795 186.34 90.957 186.333 90.9335C186.308 90.8692 186.287 90.8035 186.27 90.7368C186.213 90.4716 186.224 90.1963 186.303 89.9368C186.49 89.2701 187.227 88.4135 188.413 87.9901C189.007 87.7868 189.677 87.6568 190.377 87.4835C190.958 87.3871 191.508 87.1532 191.98 86.8013C192.453 86.4493 192.835 85.9895 193.093 85.4601C193.283 85.0716 193.449 84.672 193.59 84.2635C193.851 83.3762 194.205 82.5191 194.647 81.7068C195.153 80.9083 195.921 80.3108 196.82 80.0168C197.638 79.7516 198.471 79.54 199.317 79.3835C200.071 79.2387 200.801 78.9896 201.487 78.6435C202.067 78.3117 202.568 77.8566 202.953 77.3101C203.522 76.5211 203.847 75.5822 203.887 74.6101C203.888 74.2534 203.865 73.897 203.817 73.5435C203.917 73.8898 203.963 74.2496 203.953 74.6101C203.94 75.6032 203.626 76.5691 203.053 77.3801C202.663 77.9446 202.152 78.4149 201.557 78.7568C200.862 79.1158 200.12 79.3751 199.353 79.5268C198.516 79.6857 197.69 79.8984 196.88 80.1635C196.017 80.4461 195.279 81.02 194.793 81.7868C194.359 82.5881 194.009 83.4327 193.75 84.3068C193.606 84.7227 193.436 85.1291 193.24 85.5235C193.043 85.9023 192.791 86.2504 192.493 86.5568C191.908 87.0907 191.187 87.4538 190.41 87.6068C189.703 87.7868 189.037 87.9001 188.453 88.0935C187.297 88.4868 186.563 89.2968 186.367 89.9435C186.286 90.1928 186.264 90.4576 186.303 90.7168C186.332 90.8093 186.352 90.9041 186.363 91.0001Z" fill="#FAFAFA"/>
<path d="M205.373 109C205.387 109.069 205.395 109.139 205.397 109.21C205.403 109.412 205.382 109.614 205.333 109.81C205.124 110.533 204.681 111.166 204.073 111.61C203.668 111.933 203.219 112.198 202.74 112.397C202.23 112.613 201.667 112.787 201.073 112.97C200.457 113.15 199.855 113.373 199.27 113.637C198.662 113.927 198.118 114.333 197.667 114.833C197.18 115.34 196.76 115.897 196.293 116.39C195.847 116.868 195.328 117.273 194.757 117.59C193.784 118.121 192.695 118.405 191.587 118.417C190.844 118.425 190.106 118.302 189.407 118.053C189.217 117.988 189.032 117.909 188.853 117.817C188.788 117.79 188.727 117.755 188.67 117.713C188.737 117.732 188.803 117.755 188.867 117.783C189.05 117.862 189.237 117.931 189.427 117.99C190.125 118.209 190.855 118.312 191.587 118.293C192.671 118.265 193.732 117.976 194.68 117.45C195.234 117.136 195.736 116.739 196.17 116.273C196.627 115.787 197.043 115.233 197.54 114.713C198.018 114.195 198.593 113.776 199.233 113.48C199.827 113.215 200.438 112.992 201.063 112.813C201.65 112.633 202.21 112.48 202.73 112.26C203.195 112.07 203.632 111.817 204.03 111.51C204.627 111.088 205.073 110.485 205.3 109.79C205.349 109.53 205.374 109.265 205.373 109Z" fill="#FAFAFA"/>
<path d="M203.737 64.8202L200.957 64.8869C200.85 65.4474 200.637 65.9825 200.33 66.4635C197.997 62.4302 196.207 57.0302 195.76 54.8602C195.827 54.6435 195.903 54.4035 196 54.1369C196.069 53.7318 196.057 53.317 195.963 52.9169C195.883 52.4335 195.75 51.7835 195.71 51.4835C195.587 50.5635 195.437 50.4202 195.117 50.5235C194.683 50.6669 195.297 53.1002 194.94 53.1535C194.747 53.1802 194.513 52.3469 194.447 51.6635C194.38 50.9802 194.067 48.8735 193.843 48.7335C193.51 48.5269 193.22 48.8535 193.307 49.5335C193.393 50.2135 193.497 52.2802 193.137 52.3102C192.777 52.3402 192.47 48.8469 192.47 48.8469C192.47 48.8469 192.527 48.0869 192.107 48.1035C191.353 48.1369 191.943 51.8169 192.007 52.1669C192.053 52.4069 191.673 52.4535 191.627 52.1902C191.58 51.9269 191.407 48.7002 190.627 48.7269C190.033 48.7269 191.083 51.7569 190.75 52.4569C190.417 53.1569 190.19 50.0835 189.627 50.1235C189.417 50.1402 189.26 50.1802 189.647 51.9169C190.017 53.2967 190.462 54.6554 190.98 55.9869C191.873 60.8035 195.793 76.2135 201.937 73.3935C205.377 71.8135 206.77 64.8202 206.77 64.8202H203.737Z" fill="#B78876"/>
<path d="M191.887 52.4002C191.913 52.4068 191.94 52.4068 191.967 52.4002C192.007 52.3879 192.041 52.3617 192.064 52.3263C192.086 52.2908 192.096 52.2485 192.09 52.2069C192.09 52.0002 192.05 51.7002 192.003 51.3102C191.925 50.8402 191.874 50.3661 191.85 49.8902C191.85 49.6102 191.85 49.3102 191.867 48.9935C191.871 48.8325 191.888 48.6721 191.917 48.5135C191.943 48.3635 192.043 48.1802 192.16 48.2102H192.18C192.297 48.2102 192.39 48.2969 192.427 48.4369C192.468 48.582 192.484 48.7331 192.473 48.8835C192.542 49.8171 192.661 50.7462 192.83 51.6669C192.857 51.7902 192.883 51.9169 192.923 52.0435C192.941 52.1084 192.963 52.1719 192.99 52.2335C193.007 52.2679 193.026 52.3013 193.047 52.3335C193.062 52.3579 193.082 52.3784 193.106 52.3935C193.131 52.4085 193.158 52.4177 193.187 52.4202C193.235 52.4149 193.281 52.3952 193.318 52.3638C193.356 52.3323 193.383 52.2905 193.397 52.2435C193.425 52.1783 193.446 52.1101 193.46 52.0402C193.486 51.9059 193.504 51.77 193.513 51.6335C193.544 51.0781 193.536 50.5212 193.49 49.9669C193.448 49.6901 193.437 49.4095 193.457 49.1302C193.469 49.0096 193.527 48.8984 193.62 48.8202C193.641 48.8075 193.665 48.7994 193.69 48.7966C193.715 48.7937 193.74 48.7961 193.763 48.8035C193.792 48.8103 193.819 48.8216 193.843 48.8369C193.86 48.8495 193.873 48.8669 193.88 48.8869C193.985 49.1572 194.062 49.4375 194.11 49.7235C194.17 50.0169 194.22 50.3202 194.267 50.6235C194.313 50.9269 194.357 51.2335 194.393 51.5435C194.422 51.8634 194.473 52.1809 194.547 52.4935C194.586 52.6534 194.636 52.8104 194.697 52.9635C194.731 53.0493 194.778 53.1291 194.837 53.2002C194.859 53.2298 194.89 53.2523 194.924 53.2653C194.959 53.2783 194.997 53.2811 195.033 53.2735C195.067 53.2624 195.097 53.2427 195.121 53.2165C195.145 53.1902 195.162 53.1582 195.17 53.1235C195.209 52.9532 195.222 52.7777 195.207 52.6035C195.207 52.4369 195.187 52.2702 195.17 52.1102C195.147 51.8302 195.12 51.5535 195.11 51.2802C195.102 51.1459 195.102 51.0112 195.11 50.8769C195.117 50.8174 195.131 50.7591 195.153 50.7035C195.16 50.6852 195.17 50.6683 195.183 50.6535H195.227C195.447 50.5635 195.52 50.8702 195.58 51.1169C195.64 51.3635 195.663 51.6435 195.717 51.9069C195.803 52.4302 195.917 52.9535 195.973 53.4535C196.012 53.693 196.003 53.9376 195.947 54.1735C195.867 54.4135 195.787 54.6502 195.71 54.8869V54.9102V54.9302C196.1 56.5678 196.598 58.178 197.2 59.7502C197.727 61.1735 198.257 62.4169 198.72 63.4169C199.183 64.4169 199.603 65.2002 199.89 65.7269L200.223 66.3235C200.26 66.3946 200.303 66.4617 200.353 66.5235C200.325 66.4495 200.291 66.3781 200.25 66.3102L199.917 65.7002C199.643 65.1635 199.25 64.3669 198.797 63.3669C198.343 62.3669 197.83 61.1235 197.317 59.7002C196.729 58.1303 196.242 56.5249 195.857 54.8935V54.9402C195.933 54.7069 196.01 54.4702 196.09 54.2335C196.159 53.9738 196.173 53.7023 196.13 53.4369C196.07 52.9135 195.96 52.4069 195.873 51.8802C195.823 51.6202 195.79 51.3535 195.737 51.0802C195.733 50.9398 195.71 50.8006 195.667 50.6669C195.629 50.5856 195.564 50.5197 195.483 50.4802C195.398 50.4522 195.306 50.4522 195.22 50.4802H195.167C195.138 50.4893 195.112 50.504 195.09 50.5235C195.053 50.5549 195.024 50.595 195.007 50.6402C194.976 50.7124 194.957 50.7888 194.95 50.8669C194.94 51.0112 194.94 51.1559 194.95 51.3002C194.95 51.5802 194.99 51.8602 195.013 52.1402C195.013 52.3035 195.04 52.4735 195.047 52.6235C195.06 52.7739 195.052 52.9254 195.023 53.0735C195.023 53.1069 194.997 53.1002 195.023 53.1169L195.003 53.0969C194.961 53.0424 194.927 52.9817 194.903 52.9169C194.845 52.7727 194.797 52.6245 194.76 52.4735C194.687 52.17 194.637 51.8613 194.61 51.5502C194.574 51.2369 194.531 50.9269 194.48 50.6202C194.433 50.3135 194.38 50.0135 194.32 49.7135C194.27 49.4082 194.185 49.1096 194.067 48.8235C194.044 48.7758 194.008 48.7353 193.963 48.7069C193.924 48.6844 193.883 48.6665 193.84 48.6535C193.792 48.6411 193.743 48.6382 193.694 48.645C193.646 48.6519 193.599 48.6684 193.557 48.6935C193.488 48.7449 193.43 48.8099 193.388 48.8845C193.346 48.959 193.319 49.0416 193.31 49.1269C193.288 49.2783 193.288 49.4321 193.31 49.5835C193.31 49.7269 193.343 49.8669 193.353 50.0069C193.4 50.5523 193.41 51.1002 193.383 51.6469C193.375 51.7768 193.359 51.906 193.333 52.0335C193.324 52.0931 193.307 52.1513 193.283 52.2069C193.275 52.2289 193.262 52.2492 193.247 52.2669C193.247 52.2969 193.223 52.2669 193.227 52.3069C193.227 52.2735 193.227 52.3069 193.227 52.2635C193.212 52.241 193.198 52.2177 193.187 52.1935C193.163 52.1402 193.143 52.0802 193.123 52.0235C193.087 51.9035 193.06 51.7802 193.033 51.6602C192.859 50.7475 192.734 49.8262 192.657 48.9002C192.667 48.7326 192.647 48.5646 192.6 48.4035C192.578 48.3195 192.533 48.2434 192.47 48.1835C192.437 48.152 192.399 48.1275 192.356 48.1114C192.314 48.0954 192.269 48.0882 192.223 48.0902H192.243C192.187 48.082 192.129 48.0905 192.078 48.1148C192.026 48.1391 191.983 48.1781 191.953 48.2269C191.904 48.3064 191.87 48.3946 191.853 48.4869C191.825 48.6522 191.81 48.8193 191.807 48.9869C191.807 49.3202 191.807 49.6102 191.807 49.8935C191.838 50.3724 191.899 50.8489 191.99 51.3202C192.047 51.7069 192.09 52.0069 192.11 52.2102C192.116 52.2458 192.11 52.2825 192.092 52.3141C192.075 52.3457 192.047 52.3703 192.013 52.3835C191.913 52.3935 191.883 52.3969 191.887 52.4002Z" fill="#A36957"/>
<path d="M170.177 69.4101C169.526 69.3962 168.877 69.4713 168.247 69.6334C166.523 70.0867 163.553 71.8867 163.43 74.11H165.59C165.59 74.11 164.38 76.6833 164.733 76.4433C165.657 75.8233 167.49 73.96 167.49 73.96L170.177 69.4101Z" fill="#B78876"/>
<path d="M199.62 30.6667C199.57 30.6667 199.377 28.8867 199.183 26.6667C198.99 24.4467 198.87 22.6667 198.917 22.6667C198.963 22.6667 199.16 24.4467 199.353 26.6667C199.547 28.8867 199.667 30.6667 199.62 30.6667Z" fill="#263238"/>
<path d="M209.09 22.8035C209.127 22.8301 207.67 24.9468 205.833 27.5301C203.997 30.1135 202.473 32.1968 202.433 32.1568C202.393 32.1168 203.853 30.0135 205.69 27.4301C207.527 24.8468 209.05 22.7768 209.09 22.8035Z" fill="#263238"/>
<path d="M213.023 32.3967C213.023 32.4434 211.33 32.8334 209.223 33.2667C207.117 33.7 205.397 34.0134 205.387 33.9667C205.377 33.92 207.077 33.53 209.187 33.0967C211.297 32.6634 213 32.35 213.023 32.3967Z" fill="#263238"/>
<path d="M99.6667 78.18L87.8667 138.78L86.3333 146.713L165 146.333C168.533 146.317 171.667 143.18 172.797 138.52L186.75 81.31C187.613 77.7733 185.72 74.0933 183.04 74.0967L103.4 74.18C101.667 74.1767 100.113 75.8167 99.6667 78.18Z" fill="#2B92D5"/>
<g opacity="0.5">
<path opacity="0.5" d="M99.6667 78.18L87.8667 138.78L86.3333 146.713L165 146.333C168.533 146.317 171.667 143.18 172.797 138.52L186.75 81.31C187.613 77.7733 185.72 74.0933 183.04 74.0967L103.4 74.18C101.667 74.1767 100.113 75.8167 99.6667 78.18Z" fill="black"/>
</g>
<path d="M157.464 134.667L149.13 67.5299C148.797 64.7799 146.6 62.7266 144.01 62.7366L125.744 62.7933C125.065 62.8009 124.395 62.9467 123.774 63.2218C123.153 63.4969 122.595 63.8955 122.133 64.3933L113.467 73.6166L62.6666 73.8899C59.5633 73.9066 57.1766 76.8466 57.5866 80.1466L65.3233 142.197C65.6566 144.943 67.8533 146.993 70.4366 146.99L158.987 146.813C168.847 147.017 169.79 144.107 169.79 144.107C158.47 146.61 157.464 134.683 157.464 134.667Z" fill="#2B92D5"/>
<g opacity="0.5">
<path opacity="0.5" d="M119.28 121.24L116.294 124.447L93.2933 103.753L96.28 100.547L119.28 121.24Z" fill="white"/>
<path opacity="0.5" d="M115.043 99.8367L118.343 102.807L97.5333 125.157L94.23 122.187L115.043 99.8367Z" fill="white"/>
</g>
<path d="M170.107 34.5933C169.999 34.5478 169.906 34.4726 169.839 34.3764C169.773 34.2802 169.735 34.167 169.73 34.05L169.597 30.9566C169.592 30.8605 169.61 30.7646 169.648 30.6766C169.687 30.5885 169.746 30.5106 169.82 30.4492C169.894 30.3877 169.981 30.3444 170.075 30.3225C170.169 30.3007 170.266 30.3009 170.36 30.3233C170.618 30.379 170.885 30.3814 171.144 30.3304C171.403 30.2794 171.649 30.176 171.867 30.0266C172.067 29.8997 172.239 29.7331 172.373 29.5371C172.507 29.341 172.599 29.1196 172.643 28.8866C172.673 28.6507 172.656 28.4111 172.592 28.1821C172.528 27.9531 172.418 27.7393 172.27 27.5533C172.114 27.3418 171.917 27.1631 171.692 27.0275C171.467 26.892 171.217 26.8022 170.957 26.7633C170.432 26.7341 169.913 26.8828 169.484 27.1853C169.054 27.4878 168.739 27.9263 168.59 28.43C168.54 28.5826 168.433 28.7101 168.292 28.786C168.151 28.8618 167.985 28.8802 167.831 28.8372C167.676 28.7943 167.544 28.6933 167.462 28.5553C167.38 28.4174 167.354 28.2531 167.39 28.0966C167.617 27.3045 168.109 26.6145 168.785 26.1428C169.461 25.6711 170.278 25.4465 171.1 25.5066C171.528 25.5636 171.94 25.706 172.311 25.9253C172.683 26.1446 173.007 26.4364 173.263 26.7833C173.513 27.1048 173.696 27.4732 173.8 27.8665C173.905 28.2598 173.93 28.6702 173.873 29.0733C173.798 29.4758 173.64 29.8586 173.411 30.1979C173.182 30.5373 172.885 30.8262 172.54 31.0466C172.04 31.3833 171.456 31.5738 170.853 31.5966L170.957 33.9833C170.961 34.0882 170.938 34.1923 170.891 34.2861C170.844 34.3798 170.774 34.4602 170.687 34.5197C170.601 34.5792 170.501 34.6159 170.396 34.6265C170.292 34.637 170.187 34.621 170.09 34.58L170.107 34.5933Z" fill="#2B92D5"/>
<path d="M171.02 35.86C171.027 35.9607 171.004 36.0611 170.954 36.1487C170.904 36.2363 170.829 36.3071 170.739 36.3521C170.648 36.397 170.547 36.4142 170.447 36.4014C170.346 36.3886 170.252 36.3463 170.176 36.28C170.1 36.2138 170.045 36.1264 170.019 36.029C169.993 35.9316 169.996 35.8286 170.028 35.7329C170.06 35.6373 170.12 35.5533 170.2 35.4917C170.28 35.43 170.376 35.3935 170.477 35.3867C170.544 35.3817 170.611 35.39 170.674 35.4112C170.738 35.4323 170.797 35.4659 170.847 35.5099C170.898 35.5539 170.939 35.6075 170.969 35.6676C170.998 35.7277 171.016 35.7931 171.02 35.86Z" fill="#2B92D5"/>
<path d="M159.397 30.2299C159.411 30.164 159.421 30.0972 159.427 30.0299C159.427 29.8832 159.463 29.6966 159.49 29.4332C159.523 29.1099 159.577 28.7892 159.653 28.4732C159.697 28.2866 159.72 28.0799 159.787 27.8699C159.853 27.6599 159.92 27.4332 159.993 27.2032C160.379 26.0637 160.942 24.9917 161.66 24.0266C162.601 22.7768 163.795 21.7388 165.163 20.9799C165.942 20.5408 166.772 20.1983 167.633 19.9599C168.563 19.7134 169.521 19.5879 170.483 19.5866C170.99 19.5784 171.497 19.6052 172 19.6666C172.257 19.6932 172.51 19.7599 172.767 19.8032C173.026 19.8477 173.282 19.9101 173.533 19.9899C174.584 20.2835 175.583 20.7366 176.497 21.3332C178.527 22.6503 180.074 24.5926 180.903 26.8666C181.35 28.0847 181.576 29.3726 181.57 30.6699C181.584 32.0064 181.348 33.3336 180.873 34.5832L180.723 34.9632L180.703 35.0132L180.723 35.0632C181.56 36.9866 182.39 38.8766 183.173 40.7066L183.313 40.5466L178.313 38.6299L178.253 38.6066L178.203 38.6532C176.881 39.9348 175.261 40.8693 173.49 41.3732C171.976 41.7899 170.392 41.8809 168.84 41.6402C167.289 41.3994 165.806 40.8324 164.49 39.9766C163.412 39.2697 162.462 38.3849 161.68 37.3599C160.547 35.8639 159.813 34.1043 159.547 32.2466C159.507 31.9132 159.473 31.6332 159.443 31.3799C159.413 31.1266 159.443 30.9199 159.427 30.7432C159.41 30.5666 159.427 30.4499 159.427 30.3532C159.443 30.3507 159.458 30.342 159.469 30.3289C159.479 30.3157 159.484 30.2991 159.483 30.2823C159.482 30.2656 159.474 30.2499 159.462 30.2385C159.45 30.227 159.433 30.2207 159.417 30.2207C159.4 30.2207 159.384 30.227 159.371 30.2385C159.359 30.2499 159.351 30.2656 159.35 30.2823C159.349 30.2991 159.354 30.3157 159.364 30.3289C159.375 30.342 159.39 30.3507 159.407 30.3532C159.407 30.4499 159.407 30.5799 159.407 30.7432C159.407 30.9066 159.407 31.1332 159.407 31.3866C159.407 31.6399 159.463 31.9299 159.497 32.2599C159.606 33.0617 159.797 33.8502 160.067 34.6132C160.448 35.6209 160.962 36.5737 161.593 37.4466C162.378 38.4898 163.335 39.3916 164.423 40.1132C165.756 40.9905 167.259 41.5743 168.835 41.826C170.41 42.0777 172.021 41.9916 173.56 41.5732C175.353 41.0641 176.992 40.1207 178.333 38.8266L178.223 38.8499L183.223 40.7766L183.473 40.8732L183.363 40.6166C182.57 38.7866 181.75 36.8999 180.917 34.9732V35.0699L181.07 34.6799C181.556 33.4031 181.798 32.0462 181.783 30.6799C181.794 29.355 181.568 28.0389 181.117 26.7932C180.27 24.474 178.688 22.4947 176.613 21.1566C175.677 20.546 174.651 20.0849 173.573 19.7899C173.318 19.7092 173.058 19.6479 172.793 19.6066C172.533 19.5599 172.277 19.4932 172.017 19.4699C171.507 19.4066 170.994 19.3777 170.48 19.3832C169.503 19.3874 168.53 19.5196 167.587 19.7766C166.714 20.0245 165.873 20.3759 165.083 20.8232C163.701 21.6008 162.5 22.6631 161.56 23.9399C160.844 24.921 160.289 26.0103 159.917 27.1666C159.847 27.4066 159.78 27.6366 159.72 27.8332C159.667 28.0342 159.625 28.2378 159.593 28.4432C159.522 28.7614 159.475 29.0846 159.453 29.4099C159.433 29.6666 159.42 29.8632 159.41 30.0099C159.396 30.0823 159.391 30.1563 159.397 30.2299Z" fill="#263238"/>
</svg>
